<svg width="241" height="248" viewBox="0 0 241 248" fill="none" xmlns="http://www.w3.org/2000/svg">
<g id="&#235;&#161;&#156;&#234;&#179;&#160;" clip-path="url(#clip0_633_367)">
<path id="Vector" d="M226.015 64.1921L234.722 46.2044C235.08 45.4755 235.08 44.629 234.722 43.9001L230.827 35.9526C244.055 6.89012 239.713 0.0242316 239.713 0.0242316C239.713 0.0242316 232.058 -1.73927 211.131 21.8446C211.131 21.8446 205.244 21.2097 202.648 20.9511C201.887 20.8806 201.126 21.1862 200.634 21.7741L187.876 36.8696C186.6 38.3745 187.428 40.7493 189.331 41.0315L200.276 42.6774C200.276 42.6774 199.783 48.2265 205.692 52.4589C211.601 56.6913 216.346 54.1754 216.346 54.1754L221.807 64.2862C222.747 66.0261 225.165 65.9791 226.037 64.1921H226.015Z" fill="#CCFF3F"/>
<path id="Vector_2" d="M9.87043 140.351C12.4668 100.214 43.5108 67.7183 81.7396 65.1318C112.627 63.0391 139.844 80.0863 153.9 106.021C117.775 143.807 73.5701 184.227 47.4053 203.249L38.9001 202.896C33.9536 202.685 29.3429 200.216 26.2766 196.125C14.884 180.982 8.50512 161.489 9.87043 140.351Z" fill="#CCFF3F"/>
<path id="Vector_3" d="M162.45 161.983C156.273 194.432 131.652 219.826 100.541 225.681C98.2355 226.104 96.915 223 98.7727 221.519C119.163 205.177 139.173 184.58 158.533 160.008C160.01 158.127 162.898 159.608 162.45 162.007V161.983Z" fill="#CCFF3F"/>
<path id="Vector_4" d="M10.2735 201.204C11.4822 199.017 14.6381 200.216 14.3023 202.732C13.0937 211.832 15.3767 220.438 31.8276 213.031C33.7524 212.161 36.0578 210.868 38.6541 209.245C62.6478 194.173 113.366 148.393 153.9 106.022C176.394 82.4848 195.777 60.0296 205.648 44.4873L214.086 48.9313C214.086 48.9313 195.531 89.3742 163.121 134.426C139.71 166.968 109.068 201.838 72.9213 225.681C62.0883 232.829 50.7853 239.037 39.0123 243.833C32.611 246.443 25.762 247.831 18.9131 247.501C5.23755 246.819 -11.0119 239.319 10.2735 201.227V201.204Z" fill="#CCFF3F"/>
</g>
<defs>
<clipPath id="clip0_633_367">
<rect width="240.385" height="247.525" fill="white"/>
</clipPath>
</defs>
</svg>
