<?xml version="1.0" encoding="UTF-8"?>
<svg id="Layer_1" data-name="Layer 1" xmlns="http://www.w3.org/2000/svg" viewBox="0 0 162.95 161.94">
  <defs>
    <style>
      .cls-1 {
        fill: #fc00a0;
      }

      .cls-2 {
        font-family: Inter-Black, Inter;
        font-size: 27.54px;
        font-weight: 800;
      }
    </style>
  </defs>
  <path class="cls-1" d="M89.1,2.72l5.49,4.49c2.8,2.29,6.49,3.2,10.04,2.47l6.95-1.42c5.61-1.15,11.25,1.81,13.49,7.08l2.77,6.53c1.42,3.33,4.26,5.85,7.74,6.85l6.81,1.97c5.5,1.59,9.12,6.83,8.66,12.54l-.58,7.07c-.29,3.61,1.05,7.16,3.67,9.66l5.12,4.91c4.13,3.96,4.9,10.29,1.84,15.13l-3.8,5.99c-1.94,3.06-2.4,6.83-1.25,10.26l2.25,6.72c1.82,5.43-.44,11.39-5.4,14.25l-6.14,3.54c-3.14,1.81-5.29,4.93-5.87,8.51l-1.13,7c-.91,5.65-5.68,9.88-11.41,10.1l-7.09,.28c-3.62,.14-6.98,1.91-9.15,4.8l-4.26,5.67c-3.44,4.58-9.62,6.11-14.8,3.65l-6.4-3.05c-3.27-1.55-7.07-1.55-10.34,0l-6.4,3.05c-5.17,2.46-11.36,.93-14.8-3.65l-4.26-5.67c-2.17-2.9-5.53-4.66-9.15-4.8l-7.09-.28c-5.72-.23-10.49-4.45-11.41-10.1l-1.13-7c-.58-3.57-2.73-6.7-5.87-8.51l-6.14-3.54c-4.96-2.86-7.22-8.82-5.4-14.25l2.25-6.72c1.15-3.43,.69-7.2-1.25-10.26l-3.8-5.99c-3.06-4.84-2.3-11.16,1.84-15.13l5.12-4.91c2.61-2.51,3.96-6.06,3.67-9.66l-.58-7.07c-.47-5.71,3.15-10.95,8.66-12.54l6.81-1.97c3.48-1,6.32-3.52,7.74-6.85l2.77-6.53c2.24-5.27,7.88-8.23,13.49-7.08l6.95,1.42c3.55,.73,7.23-.18,10.04-2.47l5.49-4.49c4.43-3.63,10.81-3.63,15.24,0Z"/>
  <text class="cls-2" transform="translate(94.27 37.65) rotate(26.6)"><tspan x="0" y="0">L</tspan></text>
  <text class="cls-2" transform="translate(107.25 43.8) rotate(45.43)"><tspan x="0" y="0">e</tspan></text>
  <text class="cls-2" transform="translate(118.13 54.54) rotate(64.66)"><tspan x="0" y="0">a</tspan></text>
  <text class="cls-2" transform="translate(124.41 68.1) rotate(81.06)"><tspan x="0" y="0">r</tspan></text>
  <text class="cls-2" transform="translate(126.7 78.58) rotate(98.32)"><tspan x="0" y="0">n</tspan></text>
  <text class="cls-2" transform="translate(123.84 94.88) rotate(113.49)"><tspan x="0" y="0">i</tspan></text>
  <text class="cls-2" transform="translate(121.75 101.64) rotate(128.51)"><tspan x="0" y="0">n</tspan></text>
  <text class="cls-2" transform="translate(111.84 114.56) rotate(149.23)"><tspan x="0" y="0">g</tspan></text>
  <text class="cls-2" transform="translate(97.18 122.59) rotate(162.89)"><tspan x="0" y="0"> </tspan></text>
  <text class="cls-2" transform="translate(93.11 124.71) rotate(176.32)"><tspan x="0" y="0">b</tspan></text>
  <text class="cls-2" transform="translate(77.31 125.97) rotate(-164.14)"><tspan x="0" y="0">y</tspan></text>
  <text class="cls-2" transform="translate(62.48 121.23) rotate(-151.25)"><tspan x="0" y="0"> </tspan></text>
  <text class="cls-2" transform="translate(58.13 119.79) rotate(-137.77)"><tspan x="0" y="0">d</tspan></text>
  <text class="cls-2" transform="translate(45.94 109.04) rotate(-117.44)"><tspan x="0" y="0">o</tspan></text>
  <text class="cls-2" transform="translate(38.96 94.67) rotate(-102.63)"><tspan x="0" y="0">i</tspan></text>
  <text class="cls-2" transform="translate(36.66 87.95) rotate(-87.67)"><tspan x="0" y="0">n</tspan></text>
  <text class="cls-2" transform="translate(37.04 71.67) rotate(-66.81)"><tspan x="0" y="0">g</tspan></text>
</svg>